<svg width="161" height="161" viewBox="0 0 161 161" fill="none" xmlns="http://www.w3.org/2000/svg">
<path d="M93.9471 78.3533C94.0483 78.1812 94.1597 78.0192 94.2407 77.8268C95.9925 74.3536 96.7721 70.4856 96.438 66.6378C96.3165 65.129 94.9698 64.0253 93.4914 64.1468C91.9827 64.2683 90.8789 65.5847 91.0005 67.0934C91.2131 69.4933 90.8283 71.9234 89.917 74.1612L93.9471 78.3533Z" fill="white"/>
<path d="M76.8244 53.1198C78.3534 53.2211 79.6293 52.0971 79.7305 50.5884C79.8318 49.0796 78.7078 47.7835 77.1991 47.6823C68.8757 47.095 61.0586 51.5301 57.2513 58.9725C54.7401 63.9038 54.3047 69.5337 56.0159 74.8194C57.7272 80.0848 61.3927 84.3781 66.3442 86.9096C69.3111 88.4183 72.5108 89.1879 75.7511 89.1879C77.9079 89.1879 80.0748 88.8537 82.1911 88.1652C83.3859 87.7703 84.5301 87.264 85.6237 86.6767L81.6544 82.5352C81.2798 82.677 80.9051 82.8289 80.5203 82.9504C76.632 84.206 72.4906 83.8921 68.8352 82.029C61.3117 78.2014 58.2942 68.9566 62.142 61.4331C64.9064 55.9753 70.6983 52.7148 76.8244 53.1198Z" fill="white"/>
<path d="M45.6268 60.5217C47.0444 60.9976 48.5937 60.2685 49.1 58.8509C51.7124 51.3275 57.4436 45.2419 64.7848 42.1434C71.7108 39.2373 79.3558 39.1968 86.3223 42.0421C88.0336 42.7307 89.6436 43.5914 91.1523 44.5938L94.7672 41.1004C94.8888 40.9789 95.0001 40.8473 95.0812 40.7055C93.0155 39.2373 90.7777 38.0121 88.3677 37.0299C80.0646 33.6377 70.9514 33.6884 62.6685 37.1514C53.9097 40.827 47.0849 48.0872 43.9561 57.0789C43.4498 58.4864 44.1991 60.0357 45.6268 60.5217Z" fill="white"/>
<path d="M94.9296 30.2559C94.9296 31.5824 94.2208 32.8177 93.0665 33.4759C91.9121 34.1442 90.4945 34.1442 89.3402 33.4759C88.1859 32.8076 87.4771 31.5824 87.4771 30.2559C87.4771 28.9294 88.1859 27.6941 89.3402 27.0359C90.4945 26.3676 91.9121 26.3676 93.0665 27.0359C94.2208 27.7042 94.9296 28.9294 94.9296 30.2559Z" fill="white"/>
<path d="M50.2444 73.8982C50.2444 75.2956 49.495 76.5815 48.2901 77.2802C47.0851 77.9789 45.5865 77.9789 44.3815 77.2802C43.1766 76.5815 42.4272 75.2956 42.4272 73.8982C42.4272 72.5009 43.1766 71.2149 44.3815 70.5162C45.5865 69.8175 47.0851 69.8175 48.2901 70.5162C49.495 71.2149 50.2444 72.5009 50.2444 73.8982Z" fill="#034542"/>
<path d="M114.169 95.881C112.852 95.1519 111.404 94.7975 110.007 94.7975C109.713 94.7975 109.42 94.8178 109.126 94.838C108.934 94.8583 108.772 94.8583 108.579 94.8583C106.949 94.8583 105.379 94.1292 104.256 92.9546L103.152 91.8003C101.775 93.4103 100.246 94.8988 98.5952 96.2354L99.8306 97.5112C101.106 98.8276 101.633 100.65 101.42 102.463C100.793 108.042 105.542 112.062 110.311 112.062C112.63 112.062 114.948 111.12 116.69 108.943C119.981 104.771 118.857 98.4732 114.169 95.881Z" fill="#034542"/>
<path d="M81.4012 57.8184C80.2671 58.9018 78.7888 59.4486 77.2395 59.4486C76.7535 59.3676 76.2573 59.3271 75.7713 59.3271C75.3359 59.3271 74.9106 59.3676 74.4954 59.4284C72.0956 59.7017 70.1008 60.9979 68.744 62.7699C68.7237 62.8104 68.6832 62.8509 68.663 62.8914C68.4908 63.104 68.3491 63.3268 68.2276 63.5597C68.1871 63.6204 68.1668 63.6812 68.1263 63.7521C68.0048 63.9647 67.8934 64.1672 67.7922 64.3799C67.7922 64.4001 67.7719 64.4204 67.7719 64.4204C67.7719 64.4204 67.7719 64.4406 67.7517 64.4406C66.1822 67.7619 66.5568 71.9641 69.9895 74.6879C71.5995 75.9638 73.5436 76.5916 75.4473 76.5916C75.7409 76.5916 76.0143 76.5713 76.2877 76.5511C76.3079 76.5511 76.3079 76.5511 76.3282 76.5511C76.3485 76.5511 76.3485 76.5511 76.3687 76.5511C76.389 76.5511 76.389 76.5511 76.4092 76.5511C76.6219 76.5308 76.8041 76.5308 76.9965 76.5308C78.566 76.5308 80.095 77.0978 81.1987 78.2421L84.1048 81.2494L87.9323 85.2187L90.96 88.378C92.651 87.1021 94.18 85.5934 95.4963 83.9429L92.4181 80.7431L88.5703 76.7536L85.7047 73.7867C84.9554 72.9969 84.4693 72.0046 84.2364 70.9414C83.9833 69.6858 84.3579 68.4504 84.2162 67.1948C84.0947 66.2126 84.0238 65.4836 84.4086 64.5419C84.7427 63.6812 85.2693 62.9116 85.9173 62.2838L97.7544 50.7809L101.035 47.6014C101.248 47.3888 101.491 47.2268 101.744 47.0344C102.706 46.3661 103.86 46.0319 105.025 46.0319C105.298 46.0319 105.551 46.0522 105.814 46.0724C106.169 46.1129 106.503 46.1332 106.857 46.1332C109.885 46.1332 112.842 44.5232 114.411 41.6779C116.841 37.2833 114.918 31.6634 110.371 29.5674C109.217 29.0206 108.032 28.7979 106.878 28.7979C102.088 28.7979 97.7847 33.0001 98.2607 38.2452C98.3822 39.7337 98.0278 41.1918 97.1772 42.3664C96.9848 42.6195 96.8025 42.8524 96.5899 43.055L93.3294 46.2345L81.4012 57.8184Z" fill="#034542"/>
<path d="M116.639 84.3985C116.639 85.725 115.93 86.9603 114.776 87.6185C113.622 88.2766 112.204 88.2868 111.05 87.6185C109.895 86.9502 109.187 85.725 109.187 84.3985C109.187 83.072 109.895 81.8366 111.05 81.1785C112.204 80.5102 113.622 80.5102 114.776 81.1785C115.93 81.8366 116.639 83.072 116.639 84.3985Z" fill="white"/>
<path d="M101.248 89.8358C101.541 89.4814 101.835 89.127 102.108 88.7726C102.402 88.4182 102.675 88.0436 102.949 87.6689C104.458 85.5526 105.754 83.2541 106.756 80.7935C106.776 80.7125 106.817 80.6517 106.837 80.5606C107.009 80.1454 107.151 79.7404 107.293 79.3253C107.293 79.305 107.293 79.305 107.313 79.2848C107.374 79.1126 107.414 78.9506 107.485 78.7987C107.566 78.5253 107.678 78.2519 107.759 77.9785C107.779 77.938 107.779 77.8975 107.799 77.857C107.86 77.6241 107.921 77.4216 107.991 77.1887C108.073 76.9356 108.133 76.6622 108.204 76.4192C108.265 76.166 108.326 75.9129 108.397 75.6496C108.437 75.4167 108.498 75.2142 108.538 74.9813C108.599 74.6876 108.66 74.4142 108.71 74.1206C108.751 73.9485 108.771 73.7864 108.791 73.6143C108.913 72.8853 109.004 72.1765 109.085 71.4373C109.105 71.2651 109.105 71.0829 109.126 70.9107C109.146 70.5563 109.186 70.2019 109.207 69.8475H109.186C109.46 64.8454 108.619 59.8331 106.614 55.0841C105.733 52.9881 104.67 51.0237 103.415 49.1909C103.273 49.2922 103.121 49.4036 102.999 49.5251L99.4048 53.0185C100.245 54.3348 100.974 55.7322 101.602 57.2207C103.465 61.6355 104.134 66.3339 103.648 70.9816C103.648 70.9816 103.648 70.9816 103.627 70.9816C103.455 72.6321 103.121 74.2421 102.665 75.8319C102.544 76.2673 102.392 76.7128 102.25 77.128C102.108 77.5634 101.957 77.9887 101.795 78.4038C101.521 79.1126 101.187 79.8214 100.853 80.5201C100.752 80.7327 100.66 80.915 100.559 81.1074C100.417 81.3808 100.266 81.6542 100.124 81.9276C100.002 82.1402 99.8706 82.3427 99.7694 82.5554C99.5972 82.849 99.415 83.1427 99.2428 83.4161C99.1821 83.4971 99.1213 83.5882 99.0707 83.6692C98.8783 83.9426 98.7163 84.216 98.5239 84.4894C98.4429 84.5907 98.3517 84.702 98.2707 84.8236C98.1897 84.9248 98.129 85.0362 98.0378 85.1375C97.8657 85.3703 97.6834 85.5931 97.5113 85.826C97.4911 85.8463 97.4708 85.8868 97.4303 85.907C97.2885 86.0792 97.1569 86.2412 97.0151 86.4133C96.7822 86.6664 96.5797 86.9196 96.3468 87.1626C96.2051 87.3044 96.0734 87.4765 95.9317 87.6183C95.5773 87.9929 95.2026 88.3473 94.828 88.7017C94.6862 88.8435 94.5141 88.9751 94.3723 89.1169C94.0989 89.37 93.8053 89.5928 93.5116 89.846C93.3395 89.9675 93.1977 90.0991 93.0357 90.2409C92.9952 90.2611 92.9547 90.3016 92.9142 90.3219C92.5801 90.575 92.2459 90.8282 91.9117 91.0712C91.8915 91.0914 91.851 91.1117 91.8307 91.1319C91.8105 91.1522 91.77 91.1724 91.7497 91.1927C91.6687 91.2534 91.5573 91.3142 91.4763 91.3851C91.2029 91.5572 90.9295 91.7395 90.6561 91.9116C90.5144 91.9926 90.3828 92.104 90.241 92.185C90.0992 92.266 89.9473 92.3571 89.8056 92.4381C89.4309 92.6508 89.0563 92.8533 88.6715 93.066C88.5297 93.147 88.3576 93.2381 88.2158 93.2988C87.6893 93.5722 87.1526 93.8254 86.6058 94.0481C86.0185 94.3013 85.4312 94.5038 84.8541 94.7164C84.7123 94.757 84.5402 94.8177 84.3984 94.8582C83.8516 95.0506 83.2947 95.2126 82.7479 95.3341C82.7277 95.3341 82.7074 95.3544 82.6872 95.3544C82.6669 95.3544 82.6467 95.3544 82.6467 95.3746C82.0594 95.5164 81.4518 95.648 80.8443 95.7493C80.7025 95.7695 80.5506 95.81 80.4089 95.8303C79.8621 95.9113 79.3456 96.0024 78.7989 96.0632C78.7178 96.0632 78.6571 96.0834 78.566 96.0834C77.9584 96.1442 77.3711 96.1847 76.7636 96.2049C76.6623 96.2049 76.5712 96.2049 76.4699 96.2049C76.4092 96.2049 76.3687 96.2049 76.2978 96.2049C75.7712 96.2252 75.2346 96.2049 74.708 96.2049C74.627 96.2049 74.5359 96.2049 74.4549 96.2049C73.8676 96.1847 73.26 96.1239 72.6728 96.0632C72.531 96.0429 72.3791 96.0227 72.2576 96.0227C71.7108 95.9619 71.1944 95.8809 70.6678 95.7695C70.6476 95.7695 70.6071 95.7695 70.5868 95.7493C70.5463 95.7493 70.5058 95.729 70.4653 95.729C69.878 95.6278 69.2907 95.4759 68.7338 95.3341C68.7136 95.3341 68.7136 95.3341 68.6933 95.3341C68.5718 95.2936 68.4402 95.2734 68.3187 95.2329C67.7921 95.0911 67.2555 94.919 66.7289 94.757C66.7087 94.757 66.6682 94.7367 66.6479 94.7367C66.6277 94.7367 66.6074 94.7164 66.5872 94.7164C66.0201 94.5241 65.4531 94.3013 64.9164 94.0684C64.7949 94.0076 64.643 93.9469 64.5215 93.8963C63.995 93.6634 63.4785 93.4406 62.9722 93.1672C62.952 93.147 62.9317 93.147 62.9115 93.1267C62.8912 93.1267 62.8912 93.1064 62.871 93.1064C62.3242 92.833 61.8078 92.5192 61.2812 92.2053C61.2407 92.185 61.18 92.1445 61.1395 92.1243C61.0585 92.0837 60.9977 92.0432 60.9066 91.9825C60.4003 91.6686 59.9041 91.3344 59.4181 91.0003C59.3978 90.98 59.3776 90.98 59.3776 90.9598C58.8713 90.6054 58.3954 90.2307 57.9094 89.8257C57.8486 89.7852 57.8081 89.7447 57.7372 89.7042C57.6765 89.6434 57.6157 89.6029 57.5448 89.532C57.0689 89.1371 56.6031 88.7119 56.1475 88.2765C56.1272 88.2562 56.0867 88.2359 56.0665 88.1954C55.9652 88.0942 55.8538 88.0031 55.7323 87.9221C55.6918 87.9018 55.6513 87.8815 55.6108 87.8613C55.5905 87.8613 55.5906 87.841 55.5703 87.841C55.469 87.7803 55.3577 87.7195 55.2564 87.6689H55.2361C55.1754 87.6487 55.1349 87.6487 55.064 87.6284C54.9628 87.6082 54.8514 87.5676 54.7704 87.5474C54.7096 87.5271 54.6286 87.5271 54.5577 87.5271C54.4767 87.5271 54.3653 87.5069 54.2843 87.5069H54.2641H54.2438C54.1628 87.5069 54.0514 87.5271 53.9704 87.5271C53.8894 87.5271 53.8287 87.5271 53.7375 87.5474C53.6768 87.5676 53.616 87.5879 53.5451 87.6081C53.5046 87.6284 53.4641 87.6284 53.4236 87.6486C53.3629 87.6689 53.2819 87.6892 53.211 87.7094C53.1502 87.7297 53.0895 87.7702 53.0389 87.8107C52.9984 87.8309 52.9578 87.8512 52.8971 87.8917C52.8363 87.9119 52.7958 87.9524 52.725 87.9727C52.6237 88.0537 52.5123 88.1448 52.4111 88.2461C52.3706 88.2866 52.33 88.3068 52.3098 88.3271C51.2668 89.4105 51.2871 91.1319 52.3706 92.1749C58.7701 98.4022 67.1947 101.693 75.7712 101.693C75.7915 101.693 75.8117 101.693 75.832 101.693C80.2063 101.693 84.5908 100.832 88.7728 99.0604C90.8384 98.1997 92.7927 97.1365 94.6052 95.9214C94.9799 95.6683 95.3545 95.3949 95.7393 95.1316C96.114 94.8582 96.4684 94.5848 96.8228 94.2912C98.3416 92.9343 99.8706 91.4458 101.248 89.8358Z" fill="white"/>
<path d="M118.229 129.245V130.673H114.928V134.005H113.409V130.673H110.118V129.245H113.409V125.914H114.928V129.245H118.229ZM105.308 134.288C104.022 134.288 103.101 134.015 102.534 133.478C101.977 132.941 101.693 132.152 101.693 131.129V127.301C101.693 126.279 101.977 125.489 102.534 124.952C103.101 124.415 104.022 124.142 105.308 124.142H108.7V125.742H105.308C104.782 125.742 104.387 125.863 104.124 126.117C103.87 126.37 103.739 126.765 103.739 127.311V128.425H108.063V130.025H103.739V131.139C103.739 131.676 103.87 132.071 104.124 132.324C104.377 132.577 104.772 132.709 105.308 132.709H108.731V134.308H105.308V134.288ZM96.2154 134.46C94.8281 134.46 93.7751 134.146 93.046 133.529C92.317 132.901 91.9524 131.979 91.9524 130.764V127.656C91.9524 126.441 92.317 125.519 93.046 124.891C93.7751 124.274 94.8281 123.96 96.2154 123.96C97.2077 123.96 98.0279 124.122 98.6557 124.436C99.2936 124.76 99.7898 125.226 100.154 125.863L98.5949 126.917C98.3013 126.431 97.9773 126.086 97.6431 125.874C97.309 125.661 96.8229 125.55 96.2053 125.55C95.4357 125.55 94.8686 125.722 94.5142 126.076C94.1598 126.431 93.9776 126.957 93.9776 127.646V130.754C93.9776 131.453 94.1598 131.979 94.5142 132.324C94.8686 132.678 95.4256 132.85 96.2053 132.85C96.8837 132.85 97.4001 132.739 97.7444 132.516C98.0988 132.283 98.281 131.959 98.281 131.524V131.078C98.281 130.481 98.0076 130.177 97.4507 130.177H95.8002V128.577H98.0279C98.7975 128.577 99.3746 128.759 99.7392 129.114C100.104 129.468 100.286 130.025 100.286 130.785V131.666C100.286 132.536 99.9214 133.225 99.1822 133.711C98.4633 134.217 97.471 134.46 96.2154 134.46ZM87.8717 134.288V124.142H89.9171V134.298H87.8717V134.288ZM81.2495 134.288V125.732H78.1915V124.132H86.3529V125.732H83.2949V134.288H81.2495ZM73.4121 134.46C72.7134 134.46 72.1363 134.379 71.6603 134.227C71.1844 134.075 70.7997 133.863 70.4756 133.589C70.1617 133.316 69.8276 132.962 69.4934 132.506L70.8705 131.362C71.2654 131.909 71.6502 132.303 72.0249 132.526C72.3995 132.749 72.8552 132.86 73.4121 132.86C74.1715 132.86 74.7285 132.749 75.0829 132.526C75.4271 132.303 75.5993 131.949 75.5993 131.453C75.5993 131.2 75.5183 130.997 75.3563 130.835C75.1942 130.673 74.9107 130.531 74.5057 130.39C74.1007 130.258 73.5032 130.106 72.7134 129.944C71.7819 129.752 71.0933 129.408 70.6478 128.911C70.2022 128.415 69.9795 127.747 69.9795 126.917C69.9795 126.319 70.1314 125.793 70.4351 125.347C70.7389 124.902 71.1743 124.557 71.7312 124.314C72.2881 124.071 72.9463 123.95 73.6855 123.95C74.6475 123.95 75.417 124.091 75.9942 124.375C76.5714 124.659 77.027 125.074 77.3915 125.631L76.0448 126.734C75.741 126.431 75.498 126.208 75.2955 126.046C75.093 125.884 74.8702 125.762 74.6272 125.681C74.3741 125.59 74.0602 125.55 73.6956 125.55C73.1488 125.55 72.7337 125.671 72.4502 125.914C72.1666 126.157 72.035 126.501 72.035 126.957C72.035 127.382 72.2173 127.696 72.5717 127.899C72.9261 128.101 73.3919 128.253 73.9488 128.385C74.7791 128.557 75.4373 128.739 75.9334 128.921C76.4296 129.104 76.8346 129.397 77.1688 129.802C77.5029 130.207 77.6649 130.764 77.6649 131.473C77.6649 132.476 77.3105 133.225 76.6119 133.721C75.8929 134.217 74.8398 134.46 73.4121 134.46ZM65.0685 134.288C63.7825 134.288 62.861 134.015 62.294 133.478C61.7371 132.941 61.4536 132.152 61.4536 131.129V127.301C61.4536 126.279 61.7371 125.489 62.294 124.952C62.8509 124.415 63.7825 124.142 65.0685 124.142H68.4606V125.742H65.0685C64.5318 125.742 64.1369 125.863 63.8837 126.117C63.6306 126.37 63.499 126.765 63.499 127.311V128.425H67.8227V130.025H63.499V131.139C63.499 131.676 63.6306 132.071 63.8837 132.324C64.1369 132.577 64.5318 132.709 65.0685 132.709H68.491V134.308H65.0685V134.288ZM56.1882 128.577C56.6337 128.577 56.9982 128.456 57.2817 128.223C57.5653 127.99 57.707 127.635 57.707 127.16C57.707 126.684 57.5653 126.329 57.2817 126.096C56.9982 125.863 56.6337 125.742 56.1882 125.742H54.0719V128.587H56.1882V128.577ZM59.5803 132.06L60.2486 134.298H58.0918L57.4235 132.05C57.2919 131.585 57.1501 131.23 57.0185 130.967C56.8868 130.714 56.7046 130.521 56.4717 130.38C56.2388 130.248 55.935 130.177 55.5502 130.177H54.0719V134.298H52.0265V124.142H56.1274C57.3627 124.142 58.2842 124.385 58.8715 124.871C59.4588 125.357 59.7524 126.127 59.7524 127.16C59.7524 127.828 59.5803 128.365 59.2259 128.77C58.8715 129.175 58.3854 129.438 57.7678 129.549C58.2639 129.711 58.6285 130.005 58.8816 130.4C59.1348 130.805 59.3676 131.362 59.5803 132.06ZM44.8169 129.013H46.9332C47.3787 129.013 47.7432 128.881 48.0268 128.608C48.3103 128.334 48.452 127.929 48.452 127.372C48.452 126.825 48.3103 126.41 48.0268 126.137C47.7432 125.863 47.3787 125.732 46.9332 125.732H44.8169V129.013ZM42.7715 134.288V124.142H46.8724C48.1078 124.142 49.0191 124.405 49.6165 124.932C50.2038 125.458 50.4975 126.279 50.4975 127.372C50.4975 128.476 50.2038 129.286 49.6165 129.813C49.0292 130.339 48.1179 130.602 46.8724 130.602H44.8169V134.288H42.7715Z" fill="white"/>
</svg>
