<svg width="14" height="14" viewBox="0 0 14 14" fill="none" xmlns="http://www.w3.org/2000/svg">
<g clip-path="url(#clip0_1678_12673)">
<path d="M6.99944 1.90845C6.29719 1.90845 5.72607 2.47956 5.72607 3.18181C5.72607 3.88406 6.29719 4.45515 6.99944 4.45515C7.70169 4.45515 8.27277 3.88403 8.27277 3.18181C8.27277 2.47959 7.70166 1.90845 6.99944 1.90845ZM6.99944 3.81879C6.64831 3.81879 6.36246 3.53294 6.36246 3.18181C6.36246 2.83069 6.64831 2.54483 6.99944 2.54483C7.35056 2.54483 7.63642 2.83069 7.63642 3.18181C7.63642 3.53294 7.35056 3.81879 6.99944 3.81879Z" fill="#034542"/>
<path d="M13.6818 5.72727C13.8577 5.72727 14 5.58582 14 5.40997V4.13738C14 4.02523 13.941 3.92115 13.8443 3.86397L7.6202 0.167666C7.6174 0.165786 7.61459 0.164235 7.61182 0.162684C7.22496 -0.0517011 6.7887 -0.058204 6.37947 0.167039L0.155681 3.86397C0.108218 3.89209 0.0689014 3.9321 0.041603 3.98004C0.0143045 4.02799 -3.39025e-05 4.08221 6.01939e-08 4.13738V5.40997C6.01939e-08 5.58582 0.142317 5.72727 0.318192 5.72727H1.27274V11.4548C0.570789 11.4548 6.01939e-08 12.0255 6.01939e-08 12.7274V13.6819C-2.34708e-05 13.7237 0.00819097 13.765 0.0241736 13.8037C0.0401563 13.8423 0.0635937 13.8774 0.0931457 13.9069C0.122698 13.9365 0.157784 13.9599 0.1964 13.9759C0.235015 13.9918 0.276401 14.0001 0.318192 14H13.6818C13.7236 14.0001 13.765 13.9918 13.8036 13.9759C13.8422 13.9599 13.8773 13.9365 13.9069 13.9069C13.9364 13.8774 13.9599 13.8423 13.9759 13.8037C13.9918 13.765 14.0001 13.7237 14 13.6819V12.7274C14 12.0255 13.4292 11.4548 12.7273 11.4548V5.72727H13.6818ZM13.3636 12.7273V13.3636H0.636354V12.7273C0.636354 12.3765 0.921913 12.0909 1.27271 12.0909H12.7273C13.0781 12.0909 13.3636 12.3765 13.3636 12.7273ZM1.90909 11.4545V5.72727H3.18183V11.4545H1.90909ZM3.81818 11.4545V5.72727H5.72728V11.4545H3.81818ZM6.36363 11.4545V5.72727H7.63637V11.4545H6.36363ZM8.27272 11.4545V5.72727H10.1818V11.4545H8.27272ZM10.8182 11.4545V5.72727H12.0909V11.4545H10.8182ZM0.636354 5.09092V4.31753L6.69519 0.718081C6.89343 0.609024 7.10409 0.609322 7.29986 0.715903L13.3636 4.31753V5.09092H0.636354Z" fill="#034542"/>
</g>
<defs>
<clipPath id="clip0_1678_12673">
<rect width="14" height="14" fill="white"/>
</clipPath>
</defs>
</svg>
