<svg width="30" height="29" viewBox="0 0 30 29" fill="none" xmlns="http://www.w3.org/2000/svg">
<g clip-path="url(#clip0_5_390)">
<path d="M25.875 0H4.125C2.12581 0 0.5 1.62581 0.5 3.625V25.375C0.5 27.3742 2.12581 29 4.125 29H25.875C27.8742 29 29.5 27.3742 29.5 25.375V3.625C29.5 1.62581 27.8742 0 25.875 0Z" fill="#1976D2"/>
<path d="M24.9688 14.5H20.4375V10.875C20.4375 9.8745 21.2495 9.96875 22.25 9.96875H24.0625V5.4375H20.4375C17.4342 5.4375 15 7.87169 15 10.875V14.5H11.375V19.0312H15V29H20.4375V19.0312H23.1562L24.9688 14.5Z" fill="#FAFAFA"/>
</g>
<defs>
<clipPath id="clip0_5_390">
<rect x="0.5" width="29" height="29" fill="white"/>
</clipPath>
</defs>
</svg>
