<svg width="25" height="25" viewBox="0 0 25 25" fill="none" xmlns="http://www.w3.org/2000/svg">
<path d="M15.4876 7.3236C14.556 7.30911 13.6568 7.66519 12.9877 8.31355C12.4733 7.83319 11.8283 7.51575 11.1338 7.40121C10.4394 7.28667 9.72657 7.38014 9.08514 7.66985C8.44371 7.95956 7.90233 8.43257 7.52915 9.02932C7.15598 9.62607 6.9677 10.3199 6.98801 11.0234C6.98801 14.2793 11.8618 17.7591 12.4177 18.1441C12.5851 18.2602 12.784 18.3224 12.9877 18.3224C13.1914 18.3224 13.3903 18.2602 13.5577 18.1441C14.1137 17.7591 18.9874 14.2793 18.9874 11.0234C19.0122 10.0692 18.6577 9.14401 18.0018 8.45055C17.3458 7.75708 16.4417 7.35185 15.4876 7.3236ZM12.9877 16.0852C11.2468 14.7552 8.98791 12.5253 8.98791 11.0234C8.91191 9.01751 11.9008 8.62353 11.9878 10.7774V11.3234C11.9878 11.5886 12.0931 11.8429 12.2806 12.0305C12.4682 12.218 12.7225 12.3233 12.9877 12.3233C13.2529 12.3233 13.5073 12.218 13.6948 12.0305C13.8823 11.8429 13.9877 11.5886 13.9877 11.3234V10.7774C14.0747 8.62553 17.0635 9.01751 16.9875 11.0234C16.9875 12.5233 14.7286 14.7552 12.9877 16.0852ZM13.8237 0.351946C12.1095 0.232159 10.3896 0.481941 8.78027 1.08439C7.17097 1.68684 5.70984 2.62791 4.49572 3.84392C3.2816 5.05994 2.34282 6.52254 1.74288 8.13277C1.14294 9.743 0.895844 11.4633 1.0183 13.1773C1.45828 19.531 7.07 24.3228 14.0707 24.3228H19.9874C21.3129 24.3212 22.5837 23.7939 23.521 22.8566C24.4583 21.9193 24.9855 20.6485 24.9871 19.323V12.6633C25.0242 9.581 23.894 6.59872 21.8233 4.31516C19.7527 2.03161 16.8949 0.615798 13.8237 0.351946ZM22.9872 19.323C22.9872 20.1186 22.6712 20.8816 22.1086 21.4442C21.546 22.0068 20.783 22.3229 19.9874 22.3229H14.0707C8.03696 22.3229 3.38819 18.423 3.01321 13.0393C2.91055 11.6104 3.11613 10.1761 3.61602 8.83353C4.11592 7.49097 4.89846 6.27149 5.91066 5.25768C6.92286 4.24387 8.14109 3.45939 9.48285 2.95736C10.8246 2.45532 12.2586 2.24746 13.6877 2.34785C16.254 2.57487 18.6393 3.76469 20.3644 5.67823C22.0895 7.59178 23.0265 10.0873 22.9872 12.6633V19.323Z" fill="#034542"/>
</svg>
