<svg width="25" height="25" viewBox="0 0 25 25" fill="none" xmlns="http://www.w3.org/2000/svg">
<g clip-path="url(#clip0_263_1798)">
<path d="M21.987 21.7831V24.2831H19.987V21.7831C19.9853 21.1486 19.7421 20.5386 19.3066 20.0772C18.8712 19.6157 18.2763 19.3375 17.643 19.2991L14.987 23.2831L12.987 20.2831L10.987 23.2831L8.33098 19.2991C7.69767 19.3375 7.10278 19.6157 6.66734 20.0772C6.2319 20.5386 5.98861 21.1486 5.98698 21.7831V24.2831H3.98698V21.7831C3.98698 19.3021 6.00598 17.2831 8.48698 17.2831H17.487C19.968 17.2831 21.987 19.3021 21.987 21.7831ZM13.811 6.37809C14.4336 6.5267 15.0033 6.84393 15.4576 7.29499C15.9118 7.74605 16.233 8.3135 16.386 8.93509C16.5795 9.7218 16.4955 10.5512 16.148 11.2831H17.454C17.6972 11.2852 17.9328 11.1983 18.1164 11.0388C18.3 10.8793 18.419 10.6582 18.451 10.4171C18.5206 9.80588 18.4899 9.18739 18.36 8.58609C17.916 6.50709 16.229 4.83009 14.147 4.40209C13.3446 4.231 12.5141 4.24127 11.7161 4.43213C10.9182 4.623 10.173 4.98965 9.53483 5.50531C8.89669 6.02098 8.38177 6.67264 8.02765 7.41273C7.67352 8.15282 7.48915 8.96265 7.48798 9.78309C7.48694 11.1958 8.03149 12.5543 9.00798 13.5751C9.04798 12.7271 9.35398 11.9481 9.84398 11.3191C9.60911 10.8408 9.4873 10.3149 9.48798 9.78209C9.48862 9.25246 9.60924 8.72986 9.84079 8.25353C10.0723 7.77719 10.4088 7.35951 10.8249 7.03184C11.241 6.70417 11.7259 6.47504 12.2433 6.36164C12.7606 6.24824 13.297 6.25352 13.812 6.37709L13.811 6.37809ZM7.85798 4.31109C9.38698 2.87809 11.389 2.17009 13.488 2.30009C17.412 2.55409 20.487 5.96909 20.487 10.0741C20.4862 10.9249 20.1478 11.7407 19.5462 12.3423C18.9446 12.944 18.1288 13.2823 17.278 13.2831H14.872C14.7387 12.8206 14.4426 12.422 14.0384 12.1607C13.6342 11.8994 13.1492 11.7931 12.6728 11.8615C12.1963 11.9298 11.7607 12.1682 11.4463 12.5326C11.1319 12.897 10.9598 13.3628 10.962 13.8441C10.962 14.3745 11.1727 14.8832 11.5478 15.2583C11.9228 15.6334 12.4315 15.8441 12.962 15.8441C13.5 15.8441 13.987 15.6291 14.346 15.2831H17.278C18.659 15.2815 19.983 14.7322 20.9595 13.7557C21.9361 12.7791 22.4854 11.4551 22.487 10.0741C22.487 4.91709 18.591 0.625092 13.617 0.304092C12.3175 0.212419 11.0132 0.391553 9.78654 0.830153C8.55991 1.26875 7.4377 1.95726 6.49098 2.85209C4.70427 4.53182 3.63344 6.83537 3.50098 9.28409H5.50398C5.62261 7.38587 6.46564 5.60567 7.85898 4.31109H7.85798Z" fill="#034542"/>
</g>
<defs>
<clipPath id="clip0_263_1798">
<rect width="24" height="24" fill="white" transform="translate(0.987793 0.283203)"/>
</clipPath>
</defs>
</svg>
