<svg width="17" height="13" viewBox="0 0 17 13" fill="none" xmlns="http://www.w3.org/2000/svg">
<path fill-rule="evenodd" clip-rule="evenodd" d="M8.45209 4.54852C8.05125 3.85411 9.30466 2.38077 11.2515 1.25645C13.1975 0.133047 15.1008 -0.215984 15.5016 0.478422C15.7234 0.862891 15.9451 1.24736 16.1678 1.63273C16.5687 2.32623 15.3153 3.79958 13.3684 4.92389C11.4215 6.0473 9.51913 6.39633 9.11831 5.70283C8.89656 5.31745 8.67388 4.93298 8.45209 4.54852Z" fill="#00B585"/>
<path fill-rule="evenodd" clip-rule="evenodd" d="M11.2515 1.25645C13.1975 0.133047 15.1008 -0.215984 15.5016 0.478422C15.9024 1.17192 14.649 2.64527 12.7022 3.76958C10.7553 4.89389 8.85294 5.24201 8.45209 4.54851C8.05125 3.85411 9.30466 2.38077 11.2515 1.25645Z" fill="#FECD3D"/>
<path fill-rule="evenodd" clip-rule="evenodd" d="M11.5906 1.84365C13.1394 0.95018 14.5673 0.524836 14.7809 0.893836C14.9945 1.26377 13.912 2.28812 12.3632 3.18246C10.8144 4.07683 9.38556 4.50221 9.17287 4.13227C8.95931 3.76237 10.0418 2.73802 11.5906 1.84365Z" fill="#00B585"/>
<path d="M15.356 2.42709L15.7104 3.0415C15.795 2.93788 15.8713 2.83609 15.9367 2.73609L15.6568 2.25256L15.356 2.42709ZM15.0524 3.72138C14.9645 3.79981 14.8751 3.87648 14.7842 3.95134L14.4461 3.36509L14.747 3.19241L15.0524 3.72138ZM14.0489 4.49759C13.9531 4.56289 13.8561 4.62652 13.7581 4.68847L13.4354 4.1295L13.7363 3.95681L14.0489 4.49759ZM12.9701 5.14291C12.8655 5.19834 12.7619 5.25016 12.6592 5.30106L12.3456 4.75934L12.6474 4.58484L12.9701 5.14291ZM11.8185 5.66372C11.7082 5.70533 11.597 5.74442 11.4849 5.78097L11.1786 5.252L11.4803 5.07841L11.8185 5.66372ZM10.5669 6.01091C10.4351 6.03272 10.3087 6.04728 10.1897 6.05453L9.91064 5.571L10.2124 5.3965L10.5669 6.01091Z" fill="#FECD3D"/>
<path fill-rule="evenodd" clip-rule="evenodd" d="M8.1556 7.5615C8.55642 6.868 7.30304 5.39375 5.35617 4.27035C3.4102 3.14603 1.50692 2.79791 1.10611 3.49141C0.884324 3.87588 0.662574 4.26125 0.439887 4.64572C0.0390432 5.33922 1.29245 6.81347 3.23932 7.93688C5.1862 9.06119 7.08857 9.40931 7.48939 8.71581C7.71204 8.33138 7.93379 7.94597 8.1556 7.5615Z" fill="#00B585"/>
<path fill-rule="evenodd" clip-rule="evenodd" d="M5.35615 4.27035C3.41018 3.14603 1.5069 2.79791 1.10608 3.49141C0.706177 4.18582 1.95955 5.65916 3.90552 6.78257C5.8524 7.90688 7.75568 8.255 8.15558 7.5615C8.55643 6.868 7.30302 5.39375 5.35615 4.27035Z" fill="#FECD3D"/>
<path fill-rule="evenodd" clip-rule="evenodd" d="M5.01697 4.85758C3.46909 3.9632 2.04028 3.53786 1.82669 3.90777C1.61309 4.2768 2.69559 5.30205 4.24438 6.19548C5.79316 7.08986 7.22197 7.5152 7.43556 7.1453C7.64825 6.7763 6.56575 5.75195 5.01697 4.85758Z" fill="#00B585"/>
<path d="M1.25175 5.44016L0.897281 6.05456C0.81275 5.95094 0.737312 5.84916 0.671875 5.75006L0.950906 5.26562L1.25175 5.44016ZM1.55531 6.73444C1.64314 6.81288 1.73253 6.88956 1.82344 6.96441L2.16153 6.37906L1.86069 6.20547L1.55531 6.73444ZM2.55875 7.51156C2.65498 7.57644 2.75224 7.63977 2.8505 7.70153L3.17316 7.14256L2.87141 6.96987L2.55875 7.51156ZM3.63762 8.15687C3.74073 8.21091 3.84467 8.26333 3.94941 8.31412L4.26206 7.77241L3.96031 7.59791L3.63762 8.15687ZM4.79012 8.67678C4.90031 8.71867 5.01153 8.75776 5.12369 8.79403L5.42909 8.26506L5.12734 8.09237L4.79012 8.67678ZM6.04078 9.02487C6.1735 9.04578 6.29891 9.06031 6.41797 9.06759L6.697 8.58406L6.39616 8.40956L6.04078 9.02487Z" fill="#FECD3D"/>
<path fill-rule="evenodd" clip-rule="evenodd" d="M7.87468 11.3672C7.47475 10.6737 8.72725 9.20035 10.6741 8.07604C12.621 6.95263 14.5234 6.6036 14.9242 7.2971C15.1464 7.68178 15.3685 8.06656 15.5904 8.45142C15.9912 9.14582 14.7378 10.6192 12.7919 11.7435C10.845 12.8669 8.94172 13.2159 8.5409 12.5215C8.31899 12.1366 8.09691 11.7519 7.87468 11.3672Z" fill="#00B585"/>
<path fill-rule="evenodd" clip-rule="evenodd" d="M10.6741 8.07604C12.621 6.95263 14.5234 6.6036 14.9242 7.2971C15.325 7.99151 14.0716 9.46485 12.1247 10.5892C10.1788 11.7126 8.27553 12.0616 7.87468 11.3672C7.47475 10.6737 8.72725 9.20039 10.6741 8.07604Z" fill="#FECD3D"/>
<path fill-rule="evenodd" clip-rule="evenodd" d="M11.013 8.66312C12.5617 7.76874 13.9905 7.34428 14.2032 7.71331C14.4168 8.08321 13.3343 9.10756 11.7855 10.0019C10.2367 10.8954 8.80883 11.3207 8.59524 10.9517C8.38167 10.5818 9.46417 9.55746 11.013 8.66312Z" fill="#00B585"/>
<path d="M14.7789 9.24664L15.1343 9.86108C15.2144 9.76311 15.2897 9.66118 15.3597 9.55567L15.0806 9.07214L14.7789 9.24664ZM14.4762 10.54C14.3883 10.6187 14.2986 10.6954 14.2072 10.77L13.869 10.1846L14.1708 10.012L14.4762 10.54ZM13.4728 11.3171C13.3765 11.3822 13.2792 11.4459 13.181 11.508L12.8583 10.9491L13.1601 10.7755L13.4728 11.3171ZM12.393 11.9625C12.2902 12.0165 12.1866 12.0689 12.0821 12.1197L11.7694 11.578L12.0703 11.4035L12.393 11.9625ZM11.2414 12.4833C11.1308 12.5242 11.0196 12.5633 10.9078 12.6005L10.6024 12.0706L10.9033 11.8979L11.2414 12.4833ZM9.99072 12.8305C9.858 12.8523 9.73166 12.8659 9.6135 12.8732L9.33447 12.3897L9.63532 12.2152L9.99072 12.8305Z" fill="#FECD3D"/>
<path d="M7.09416 1.75V2.26719H7.61132V2.71619H7.09416V3.23425H6.64516V2.71619H6.12707V2.26719H6.64516V1.75H7.09416ZM5.49448 10.0456V10.5628H6.01254V11.0118H5.49448V11.5299H5.04548V11.0118H4.52832V10.5628H5.04548V10.0456H5.49448ZM15.8161 4.973V5.49016H16.3341V5.93919H15.8161V6.45725H15.367V5.93919H14.8499V5.49016H15.367V4.973H15.8161Z" fill="#00B585"/>
</svg>
