<svg width="25" height="25" viewBox="0 0 25 25" fill="none" xmlns="http://www.w3.org/2000/svg">
<path d="M17.0078 11.2288C18.8288 11.2288 20.3048 9.75277 20.3048 7.93177C20.3048 6.11177 18.8288 4.63477 17.0078 4.63477" stroke="#034542" stroke-width="2" stroke-linecap="round" stroke-linejoin="round"/>
<path d="M18.5239 14.8115C19.0679 14.8485 19.6079 14.9265 20.1409 15.0445C20.8799 15.1915 21.7699 15.4945 22.0859 16.1575C22.2879 16.5825 22.2879 17.0775 22.0859 17.5025C21.7709 18.1655 20.8799 18.4685 20.1409 18.6205" stroke="#034542" stroke-width="2" stroke-linecap="round" stroke-linejoin="round"/>
<path fill-rule="evenodd" clip-rule="evenodd" d="M10.5793 15.5215C14.2693 15.5215 17.4213 16.0805 17.4213 18.3135C17.4213 20.5475 14.2893 21.1255 10.5793 21.1255C6.88928 21.1255 3.73828 20.5675 3.73828 18.3335C3.73828 16.0995 6.86928 15.5215 10.5793 15.5215Z" stroke="#034542" stroke-width="2" stroke-linecap="round" stroke-linejoin="round"/>
<path fill-rule="evenodd" clip-rule="evenodd" d="M10.5793 12.3339C8.14531 12.3339 6.19531 10.3829 6.19531 7.94894C6.19531 5.51594 8.14531 3.56494 10.5793 3.56494C13.0133 3.56494 14.9643 5.51594 14.9643 7.94894C14.9643 10.3829 13.0133 12.3339 10.5793 12.3339Z" stroke="#034542" stroke-width="2" stroke-linecap="round" stroke-linejoin="round"/>
</svg>
