<svg width="14" height="15" viewBox="0 0 14 15" fill="none" xmlns="http://www.w3.org/2000/svg">
<path fill-rule="evenodd" clip-rule="evenodd" d="M9.52849 2.55573H4.47158C2.70933 2.55573 1.60449 3.80348 1.60449 5.56923V10.3339C1.60449 12.0996 2.70408 13.3474 4.47158 13.3474H9.52791C11.296 13.3474 12.3962 12.0996 12.3962 10.3339V5.56923C12.3962 3.80348 11.296 2.55573 9.52849 2.55573Z" stroke="#034542" stroke-linecap="round" stroke-linejoin="round"/>
<path fill-rule="evenodd" clip-rule="evenodd" d="M6.23723 7.95155C6.23723 8.54772 5.75365 9.03188 5.1569 9.03188C4.56073 9.03188 4.07715 8.54772 4.07715 7.95155C4.07715 7.35538 4.56073 6.87122 5.1569 6.87122C5.75365 6.87122 6.23723 7.35538 6.23723 7.95155Z" stroke="#034542" stroke-linecap="round" stroke-linejoin="round"/>
<path d="M6.2373 7.95157H9.9228V9.0319" stroke="#034542" stroke-linecap="round" stroke-linejoin="round"/>
<path d="M8.27311 9.0316V7.95126" stroke="#034542" stroke-linecap="round" stroke-linejoin="round"/>
</svg>
