<svg width="37" height="37" viewBox="0 0 37 37" fill="none" xmlns="http://www.w3.org/2000/svg">
<path d="M34.8125 12.6562C34.4147 12.6562 34.0331 12.4982 33.7518 12.2169C33.4705 11.9356 33.3125 11.5541 33.3125 11.1562V5.15625C33.3125 4.32825 32.639 3.65625 31.8125 3.65625H25.8125C25.4147 3.65625 25.0331 3.49821 24.7518 3.21691C24.4705 2.93561 24.3125 2.55407 24.3125 2.15625C24.3125 1.75843 24.4705 1.37689 24.7518 1.09559C25.0331 0.814285 25.4147 0.65625 25.8125 0.65625L31.8125 0.65625C34.2935 0.65625 36.3125 2.67525 36.3125 5.15625V11.1562C36.3125 11.5541 36.1545 11.9356 35.8732 12.2169C35.5919 12.4982 35.2103 12.6562 34.8125 12.6562ZM31.8125 36.6562H25.8125C25.4147 36.6562 25.0331 36.4982 24.7518 36.2169C24.4705 35.9356 24.3125 35.5541 24.3125 35.1562C24.3125 34.7584 24.4705 34.3769 24.7518 34.0956C25.0331 33.8143 25.4147 33.6562 25.8125 33.6562H31.8125C32.639 33.6562 33.3125 32.9842 33.3125 32.1562V26.1562C33.3125 25.7584 33.4705 25.3769 33.7518 25.0956C34.0331 24.8143 34.4147 24.6562 34.8125 24.6562C35.2103 24.6562 35.5919 24.8143 35.8732 25.0956C36.1545 25.3769 36.3125 25.7584 36.3125 26.1562V32.1562C36.3125 34.6372 34.2935 36.6562 31.8125 36.6562ZM10.8125 36.6562H4.8125C2.3315 36.6562 0.3125 34.6372 0.3125 32.1562V26.1562C0.3125 25.7584 0.470535 25.3769 0.75184 25.0956C1.03314 24.8143 1.41468 24.6562 1.8125 24.6562C2.21032 24.6562 2.59186 24.8143 2.87316 25.0956C3.15446 25.3769 3.3125 25.7584 3.3125 26.1562V32.1562C3.3125 32.9842 3.986 33.6562 4.8125 33.6562H10.8125C11.2103 33.6562 11.5919 33.8143 11.8732 34.0956C12.1545 34.3769 12.3125 34.7584 12.3125 35.1562C12.3125 35.5541 12.1545 35.9356 11.8732 36.2169C11.5919 36.4982 11.2103 36.6562 10.8125 36.6562ZM1.8125 12.6562C1.41468 12.6562 1.03314 12.4982 0.75184 12.2169C0.470535 11.9356 0.3125 11.5541 0.3125 11.1562V5.15625C0.3125 2.67525 2.3315 0.65625 4.8125 0.65625H10.8125C11.2103 0.65625 11.5919 0.814285 11.8732 1.09559C12.1545 1.37689 12.3125 1.75843 12.3125 2.15625C12.3125 2.55407 12.1545 2.93561 11.8732 3.21691C11.5919 3.49821 11.2103 3.65625 10.8125 3.65625H4.8125C3.986 3.65625 3.3125 4.32825 3.3125 5.15625V11.1562C3.3125 11.5541 3.15446 11.9356 2.87316 12.2169C2.59186 12.4982 2.21032 12.6562 1.8125 12.6562ZM27.3125 17.1562C26.9147 17.1562 26.5331 16.9982 26.2518 16.7169C25.9705 16.4356 25.8125 16.0541 25.8125 15.6562V11.1562H10.8125V15.6562C10.8125 16.0541 10.6545 16.4356 10.3732 16.7169C10.0919 16.9982 9.71032 17.1562 9.3125 17.1562C8.91468 17.1562 8.53314 16.9982 8.25184 16.7169C7.97054 16.4356 7.8125 16.0541 7.8125 15.6562V11.1562C7.8125 9.50175 9.158 8.15625 10.8125 8.15625H25.8125C27.467 8.15625 28.8125 9.50175 28.8125 11.1562V15.6562C28.8125 16.0541 28.6545 16.4356 28.3732 16.7169C28.0919 16.9982 27.7103 17.1562 27.3125 17.1562ZM31.8125 21.6562C31.8125 22.0541 31.6545 22.4356 31.3732 22.7169C31.0919 22.9982 30.7103 23.1562 30.3125 23.1562H28.8125V26.1562C28.8125 27.8108 27.467 29.1562 25.8125 29.1562H10.8125C9.158 29.1562 7.8125 27.8108 7.8125 26.1562V23.1562H6.3125C5.91468 23.1562 5.53314 22.9982 5.25184 22.7169C4.97054 22.4356 4.8125 22.0541 4.8125 21.6562C4.8125 21.2584 4.97054 20.8769 5.25184 20.5956C5.53314 20.3143 5.91468 20.1562 6.3125 20.1562H30.3125C30.7103 20.1562 31.0919 20.3143 31.3732 20.5956C31.6545 20.8769 31.8125 21.2584 31.8125 21.6562Z" fill="#034542"/>
</svg>
