<svg width="25" height="25" viewBox="0 0 25 25" fill="none" xmlns="http://www.w3.org/2000/svg">
<path d="M15.9878 21.291H13.9878V19.291H15.9878V21.291ZM13.9878 14.291H11.9878V19.291H13.9878V14.291ZM21.9878 12.291H19.9878V16.291H21.9878V12.291ZM19.9878 10.291H17.9878V12.291H19.9878V10.291ZM7.98779 12.291H5.98779V14.291H7.98779V12.291ZM5.98779 10.291H3.98779V12.291H5.98779V10.291ZM12.9878 5.29102H14.9878V3.29102H12.9878V5.29102ZM5.48779 4.79102V7.79102H8.48779V4.79102H5.48779ZM9.98779 9.29102H3.98779V3.29102H9.98779V9.29102ZM5.48779 16.791V19.791H8.48779V16.791H5.48779ZM9.98779 21.291H3.98779V15.291H9.98779V21.291ZM17.4878 4.79102V7.79102H20.4878V4.79102H17.4878ZM21.9878 9.29102H15.9878V3.29102H21.9878V9.29102ZM19.9878 19.291V16.291H15.9878V18.291H17.9878V21.291H21.9878V19.291H19.9878ZM17.9878 12.291H13.9878V14.291H17.9878V12.291ZM13.9878 10.291H7.98779V12.291H9.98779V14.291H11.9878V12.291H13.9878V10.291ZM14.9878 9.29102V7.29102H12.9878V5.29102H10.9878V9.29102H14.9878ZM7.73779 5.54102H6.23779V7.04102H7.73779V5.54102ZM7.73779 17.541H6.23779V19.041H7.73779V17.541ZM19.7378 5.54102H18.2378V7.04102H19.7378V5.54102Z" fill="#034542"/>
</svg>
