<svg width="32" height="32" viewBox="0 0 32 32" fill="none" xmlns="http://www.w3.org/2000/svg">
<rect x="0.710449" y="0.322876" width="30.9199" height="30.9199" rx="4.58073" fill="#FF7F00" fill-opacity="0.2"/>
<path d="M21.0374 27.8071H9.58561C8.37072 27.8071 7.2056 27.3245 6.34655 26.4654C5.48749 25.6064 5.00488 24.4413 5.00488 23.2264V11.7746C5.00488 10.5597 5.48749 9.39456 6.34655 8.53551C7.2056 7.67646 8.37072 7.19385 9.58561 7.19385H16.4567C16.7604 7.19385 17.0517 7.3145 17.2665 7.52926C17.4812 7.74403 17.6019 8.03531 17.6019 8.33903C17.6019 8.64275 17.4812 8.93403 17.2665 9.14879C17.0517 9.36356 16.7604 9.48421 16.4567 9.48421H9.58561C8.97817 9.48421 8.3956 9.72552 7.96608 10.155C7.53655 10.5846 7.29525 11.1671 7.29525 11.7746V23.2264C7.29525 23.8338 7.53655 24.4164 7.96608 24.8459C8.3956 25.2754 8.97817 25.5167 9.58561 25.5167H21.0374C21.6449 25.5167 22.2274 25.2754 22.657 24.8459C23.0865 24.4164 23.3278 23.8338 23.3278 23.2264V19.7908C23.3278 19.4871 23.4484 19.1958 23.6632 18.9811C23.878 18.7663 24.1692 18.6457 24.473 18.6457C24.7767 18.6457 25.068 18.7663 25.2827 18.9811C25.4975 19.1958 25.6181 19.4871 25.6181 19.7908V23.2264C25.6181 24.4413 25.1355 25.6064 24.2765 26.4654C23.4174 27.3245 22.2523 27.8071 21.0374 27.8071Z" fill="#FF7F00"/>
<path d="M15.3117 18.6458C14.673 18.6458 14.0486 18.4564 13.5175 18.1016C12.9865 17.7467 12.5725 17.2424 12.3281 16.6523C12.0837 16.0622 12.0197 15.4128 12.1443 14.7864C12.2689 14.16 12.5765 13.5845 13.0281 13.1329C13.4798 12.6812 14.0552 12.3737 14.6817 12.2491C15.3081 12.1245 15.9574 12.1884 16.5475 12.4328C17.1376 12.6773 17.642 13.0912 17.9968 13.6223C18.3517 14.1533 18.5411 14.7777 18.5411 15.4164C18.5411 15.7201 18.4204 16.0114 18.2057 16.2262C17.9909 16.441 17.6996 16.5616 17.3959 16.5616C17.0922 16.5616 16.8009 16.441 16.5862 16.2262C16.3714 16.0114 16.2507 15.7201 16.2507 15.4164C16.2507 15.2307 16.1957 15.0491 16.0925 14.8947C15.9893 14.7403 15.8426 14.6199 15.671 14.5489C15.4995 14.4778 15.3106 14.4592 15.1285 14.4954C14.9463 14.5317 14.779 14.6211 14.6477 14.7524C14.5164 14.8837 14.4269 15.0511 14.3907 15.2332C14.3544 15.4154 14.373 15.6042 14.4441 15.7758C14.5152 15.9474 14.6356 16.094 14.79 16.1972C14.9444 16.3004 15.126 16.3555 15.3117 16.3555C15.6154 16.3555 15.9067 16.4761 16.1215 16.6909C16.3362 16.9057 16.4569 17.1969 16.4569 17.5007C16.4569 17.8044 16.3362 18.0957 16.1215 18.3104C15.9067 18.5252 15.6154 18.6458 15.3117 18.6458Z" fill="#FF7F00"/>
<path d="M15.3117 22.814C14.4561 22.811 13.6365 22.4698 13.0315 21.8648C12.4265 21.2598 12.0853 20.4402 12.0823 19.5846C12.0823 19.2809 12.2029 18.9896 12.4177 18.7748C12.6325 18.5601 12.9237 18.4394 13.2275 18.4394C13.5312 18.4394 13.8225 18.5601 14.0372 18.7748C14.252 18.9896 14.3726 19.2809 14.3726 19.5846C14.3726 19.7703 14.4277 19.9519 14.5309 20.1063C14.6341 20.2607 14.7807 20.3811 14.9523 20.4522C15.1239 20.5232 15.3127 20.5418 15.4949 20.5056C15.677 20.4694 15.8444 20.3799 15.9757 20.2486C16.107 20.1173 16.1965 19.9499 16.2327 19.7678C16.2689 19.5856 16.2503 19.3968 16.1793 19.2252C16.1082 19.0536 15.9878 18.907 15.8334 18.8038C15.679 18.7006 15.4974 18.6455 15.3117 18.6455C15.008 18.6455 14.7167 18.5249 14.5019 18.3101C14.2872 18.0954 14.1665 17.8041 14.1665 17.5004C14.1665 17.1966 14.2872 16.9054 14.5019 16.6906C14.7167 16.4758 15.008 16.3552 15.3117 16.3552C16.1682 16.3552 16.9896 16.6954 17.5952 17.3011C18.2009 17.9067 18.5411 18.7281 18.5411 19.5846C18.5411 20.4411 18.2009 21.2625 17.5952 21.8681C16.9896 22.4738 16.1682 22.814 15.3117 22.814ZM15.3117 14.4771C15.008 14.4771 14.7167 14.3564 14.5019 14.1417C14.2872 13.9269 14.1665 13.6356 14.1665 13.3319V11.7745C14.1665 11.4707 14.2872 11.1795 14.5019 10.9647C14.7167 10.7499 15.008 10.6293 15.3117 10.6293C15.6154 10.6293 15.9067 10.7499 16.1215 10.9647C16.3362 11.1795 16.4569 11.4707 16.4569 11.7745V13.3319C16.4569 13.6356 16.3362 13.9269 16.1215 14.1417C15.9067 14.3564 15.6154 14.4771 15.3117 14.4771Z" fill="#FF7F00"/>
<path d="M15.3117 24.3715C15.008 24.3715 14.7167 24.2509 14.5019 24.0361C14.2872 23.8214 14.1665 23.5301 14.1665 23.2263V21.6689C14.1665 21.3652 14.2872 21.0739 14.5019 20.8591C14.7167 20.6444 15.008 20.5237 15.3117 20.5237C15.6154 20.5237 15.9067 20.6444 16.1215 20.8591C16.3362 21.0739 16.4569 21.3652 16.4569 21.6689V23.2263C16.4569 23.5301 16.3362 23.8214 16.1215 24.0361C15.9067 24.2509 15.6154 24.3715 15.3117 24.3715ZM24.6335 15.6223C24.5007 15.6222 24.3689 15.5989 24.2441 15.5536L19.8924 13.9962C19.7497 13.9451 19.6186 13.8661 19.5067 13.764C19.3948 13.6618 19.3042 13.5385 19.2403 13.4011C19.1764 13.2637 19.1404 13.1149 19.1344 12.9635C19.1284 12.8121 19.1525 12.6609 19.2053 12.5189L20.7742 8.21302C20.879 7.92752 21.0929 7.69534 21.3689 7.56756C21.5055 7.50429 21.6533 7.46855 21.8037 7.46239C21.9542 7.45622 22.1044 7.47976 22.2458 7.53164C22.3871 7.58352 22.5169 7.66274 22.6276 7.76477C22.7384 7.86681 22.8279 7.98965 22.8912 8.1263C22.9545 8.26295 22.9902 8.41072 22.9964 8.56117C23.0026 8.71163 22.979 8.86183 22.9271 9.0032L21.782 12.2326L24.9999 13.3778C25.253 13.4696 25.4656 13.6477 25.6004 13.8807C25.7352 14.1137 25.7837 14.3868 25.7372 14.6519C25.6907 14.9171 25.5523 15.1574 25.3463 15.3307C25.1403 15.504 24.8798 15.5991 24.6106 15.5994L24.6335 15.6223Z" fill="#FF7F00"/>
<path d="M20.3274 14.0649C20.0237 14.0968 19.7197 14.0067 19.4824 13.8145C19.2451 13.6223 19.0939 13.3437 19.062 13.04C19.0301 12.7362 19.1201 12.4323 19.3124 12.195C19.5046 11.9577 19.7832 11.8064 20.0869 11.7745C21.4391 11.4794 22.6788 10.8039 23.6599 9.82773C24.7089 8.74741 25.3937 7.3659 25.6181 5.87685C25.6391 5.72574 25.69 5.58033 25.7679 5.44917C25.8458 5.318 25.9491 5.20373 26.0718 5.11305C26.1945 5.02237 26.334 4.95712 26.4823 4.92112C26.6305 4.88513 26.7845 4.87912 26.9351 4.90345C27.0862 4.92438 27.2316 4.97529 27.3628 5.0532C27.4939 5.1311 27.6082 5.23443 27.6989 5.35711C27.7896 5.47979 27.8548 5.61936 27.8908 5.76761C27.9268 5.91586 27.9328 6.0698 27.9085 6.22041C27.6006 8.18872 26.6834 10.011 25.286 11.431C24.0076 12.7492 22.3716 13.6648 20.5793 14.0649C20.4957 14.0761 20.411 14.0761 20.3274 14.0649Z" fill="#FF7F00"/>
</svg>
