<svg width="334" height="334" viewBox="0 0 334 334" fill="none" xmlns="http://www.w3.org/2000/svg">
<g clip-path="url(#clip0_985_20097)">
<path d="M334 167C334 174.682 327.765 180.917 320.083 180.917H13.9167C6.23467 180.917 0 174.682 0 167C0 159.318 6.23467 153.083 13.9167 153.083H320.083C327.765 153.083 334 159.318 334 167ZM97.4167 306.167H69.5833C46.5652 306.167 27.8333 287.435 27.8333 264.417V236.583C27.8333 228.901 21.5987 222.667 13.9167 222.667C6.23467 222.667 0 228.901 0 236.583V264.417C0 302.785 31.2151 334 69.5833 334H97.4167C105.099 334 111.333 327.765 111.333 320.083C111.333 312.401 105.099 306.167 97.4167 306.167ZM320.083 222.667C312.401 222.667 306.167 228.901 306.167 236.583V264.417C306.167 287.435 287.435 306.167 264.417 306.167H236.583C228.901 306.167 222.667 312.401 222.667 320.083C222.667 327.765 228.901 334 236.583 334H264.417C302.785 334 334 302.785 334 264.417V236.583C334 228.901 327.765 222.667 320.083 222.667ZM264.417 0H236.583C228.901 0 222.667 6.23467 222.667 13.9167C222.667 21.5987 228.901 27.8333 236.583 27.8333H264.417C287.435 27.8333 306.167 46.5652 306.167 69.5833V97.4167C306.167 105.099 312.401 111.333 320.083 111.333C327.765 111.333 334 105.099 334 97.4167V69.5833C334 31.2151 302.785 0 264.417 0ZM13.9167 111.333C21.5987 111.333 27.8333 105.099 27.8333 97.4167V69.5833C27.8333 46.5652 46.5652 27.8333 69.5833 27.8333H97.4167C105.099 27.8333 111.333 21.5987 111.333 13.9167C111.333 6.23467 105.099 0 97.4167 0H69.5833C31.2151 0 0 31.2151 0 69.5833V97.4167C0 105.099 6.23467 111.333 13.9167 111.333Z" fill="#034542"/>
</g>
<defs>
<clipPath id="clip0_985_20097">
<rect width="334" height="334" fill="white"/>
</clipPath>
</defs>
</svg>
