<svg width="16" height="18" viewBox="0 0 16 18" fill="none" xmlns="http://www.w3.org/2000/svg">
<path d="M12.7203 12.1076C11.8579 12.1076 11.0809 12.48 10.5416 13.0725L5.69105 10.0683C5.82422 9.72785 5.89249 9.36552 5.89235 8.99998C5.89252 8.63444 5.82424 8.2721 5.69105 7.93169L10.5416 4.92735C11.0809 5.5198 11.8579 5.89239 12.7203 5.89239C14.345 5.89239 15.6666 4.57073 15.6666 2.94612C15.6666 1.32152 14.345 0 12.7203 0C11.0958 0 9.77412 1.32166 9.77412 2.94626C9.77405 3.31178 9.84233 3.67409 9.97543 4.01452L5.12496 7.01876C4.58567 6.4263 3.80868 6.05372 2.94626 6.05372C1.32166 6.05372 0 7.37552 0 8.99998C0 10.6245 1.32166 11.9462 2.94626 11.9462C3.80864 11.9462 4.5857 11.5738 5.12496 10.9812L9.97546 13.9854C9.84234 14.3259 9.77405 14.6883 9.77412 15.0538C9.77412 16.6783 11.0957 18 12.7203 18C14.345 18 15.6666 16.6783 15.6666 15.0539C15.6666 13.4292 14.345 12.1076 12.7203 12.1076ZM10.8484 2.94626C10.8484 1.91408 11.6882 1.07434 12.7203 1.07434C13.7525 1.07434 14.5923 1.91408 14.5923 2.94626C14.5923 3.97845 13.7525 4.81819 12.7203 4.81819C11.6882 4.81819 10.8484 3.97841 10.8484 2.94626ZM2.94626 10.8719C1.91394 10.8719 1.0742 10.0321 1.0742 8.99998C1.0742 7.96783 1.91394 7.12806 2.94626 7.12806C3.97845 7.12806 4.81805 7.96783 4.81805 8.99998C4.81805 10.0321 3.97841 10.8719 2.94626 10.8719ZM10.8484 15.0537C10.8484 14.0216 11.6882 13.1818 12.7203 13.1818C13.7525 13.1818 14.5923 14.0216 14.5923 15.0537C14.5923 16.0859 13.7525 16.9256 12.7203 16.9256C11.6882 16.9256 10.8484 16.0859 10.8484 15.0537V15.0537Z" fill="#F9F9FA"/>
</svg>
