<svg width="26" height="25" viewBox="0 0 26 25" fill="none" xmlns="http://www.w3.org/2000/svg">
<path d="M17.1737 8.3913C17.1737 9.49316 16.736 10.5499 15.9569 11.329C15.1777 12.1082 14.121 12.5459 13.0191 12.5459C11.9173 12.5459 10.8605 12.1082 10.0814 11.329C9.30225 10.5499 8.86453 9.49316 8.86453 8.3913M4.32899 7.76955L3.60193 16.4942C3.44575 18.3684 3.36765 19.3056 3.68447 20.0285C3.96283 20.6637 4.44512 21.1878 5.05497 21.5179C5.74908 21.8937 6.68946 21.8937 8.57022 21.8937H17.468C19.3488 21.8937 20.2892 21.8937 20.9833 21.5179C21.5931 21.1878 22.0754 20.6637 22.3538 20.0285C22.6706 19.3056 22.5925 18.3684 22.4363 16.4942L21.7093 7.76954C21.5749 6.15691 21.5077 5.35059 21.1506 4.7403C20.8361 4.20289 20.3678 3.77202 19.8061 3.50326C19.1683 3.19806 18.3592 3.19806 16.741 3.19806L9.29727 3.19806C7.67905 3.19806 6.86993 3.19806 6.2321 3.50326C5.67043 3.77202 5.20216 4.20289 4.88768 4.7403C4.53057 5.35059 4.46337 6.15691 4.32899 7.76955Z" stroke="#B9BCBE" stroke-width="2.07729" stroke-linecap="round" stroke-linejoin="round"/>
</svg>
