<svg width="141" height="21" viewBox="0 0 141 21" fill="none" xmlns="http://www.w3.org/2000/svg">
<path d="M140.099 10.4221V13.0559H134.01V19.2013H131.208V13.0559H125.137V10.4221H131.208V4.2766H134.01V10.4221H140.099ZM116.264 19.7243C113.892 19.7243 112.192 19.22 111.146 18.23C110.119 17.24 109.596 15.783 109.596 13.8964V6.83566C109.596 4.94905 110.119 3.49207 111.146 2.50207C112.192 1.51207 113.892 1.00773 116.264 1.00773H122.522V3.95905H116.264C115.293 3.95905 114.565 4.18321 114.079 4.65019C113.612 5.11717 113.369 5.84566 113.369 6.85434V8.90905H121.345V11.8604H113.369V13.9151C113.369 14.9051 113.612 15.6336 114.079 16.1005C114.546 16.5675 115.274 16.8104 116.264 16.8104H122.578V19.7617H116.264V19.7243ZM99.4904 20.0419C96.9314 20.0419 94.9887 19.4628 93.6438 18.3234C92.2989 17.1653 91.6264 15.4655 91.6264 13.224V7.48943C91.6264 5.24792 92.2989 3.5481 93.6438 2.38999C94.9887 1.25055 96.9314 0.671501 99.4904 0.671501C101.321 0.671501 102.834 0.970371 103.992 1.54943C105.169 2.14716 106.084 3.00642 106.757 4.18321L103.88 6.12584C103.338 5.22923 102.741 4.59414 102.124 4.20188C101.508 3.80961 100.611 3.60414 99.4717 3.60414C98.0521 3.60414 97.0061 3.9217 96.3523 4.57547C95.6985 5.22924 95.3623 6.20056 95.3623 7.47075V13.2053C95.3623 14.4942 95.6985 15.4655 96.3523 16.1005C97.0061 16.7543 98.0334 17.0719 99.4717 17.0719C100.723 17.0719 101.676 16.8664 102.311 16.4555C102.965 16.0258 103.301 15.4281 103.301 14.6249V13.803C103.301 12.7009 102.797 12.1406 101.769 12.1406H98.7246V9.18925H102.834C104.254 9.18925 105.318 9.52547 105.991 10.1792C106.663 10.833 106.999 11.8604 106.999 13.2613V14.8864C106.999 16.4928 106.327 17.763 104.963 18.6596C103.637 19.5936 101.807 20.0419 99.4904 20.0419ZM84.0987 19.7243V1.00773H87.8719V19.743H84.0987V19.7243ZM71.8825 19.7243V3.94037H66.2414V0.989045H81.2968V3.94037H75.6557V19.7243H71.8825ZM57.4248 20.0419C56.1359 20.0419 55.0712 19.8924 54.1932 19.6123C53.3153 19.3321 52.6055 18.9398 52.0078 18.4355C51.4287 17.9311 50.8123 17.2774 50.1959 16.4368L52.7363 14.326C53.4648 15.3347 54.1746 16.0632 54.8657 16.4742C55.5568 16.8851 56.3974 17.0906 57.4248 17.0906C58.8257 17.0906 59.8531 16.8851 60.5068 16.4742C61.1419 16.0632 61.4595 15.4094 61.4595 14.4942C61.4595 14.0272 61.31 13.6536 61.0112 13.3547C60.7123 13.0559 60.1893 12.7943 59.4421 12.5328C58.695 12.29 57.5929 12.0098 56.1359 11.7109C54.4174 11.356 53.1472 10.7209 52.3253 9.80565C51.5034 8.89037 51.0925 7.65754 51.0925 6.12584C51.0925 5.02376 51.3727 4.05245 51.9331 3.23056C52.4934 2.40868 53.2966 1.77357 54.324 1.32527C55.3514 0.87697 56.5655 0.652832 57.9291 0.652832C59.7036 0.652832 61.1233 0.914338 62.188 1.43736C63.2527 1.96038 64.0933 2.72622 64.7657 3.75358L62.2814 5.78962C61.721 5.22925 61.2727 4.8183 60.8991 4.51944C60.5255 4.22057 60.1146 3.99642 59.6663 3.84698C59.1993 3.67887 58.6202 3.60414 57.9478 3.60414C56.9391 3.60414 56.1733 3.82829 55.6502 4.2766C55.1272 4.7249 54.8844 5.35999 54.8844 6.20056C54.8844 6.98508 55.2206 7.56414 55.8744 7.93773C56.5282 8.31131 57.3874 8.59151 58.4148 8.83434C59.9465 9.15188 61.1606 9.48811 62.0759 9.82433C62.9912 10.1606 63.7383 10.7023 64.3548 11.4494C64.9712 12.1966 65.27 13.224 65.27 14.5315C65.27 16.3807 64.6163 17.763 63.3274 18.6783C62.0012 19.5936 60.0585 20.0419 57.4248 20.0419ZM42.0331 19.7243C39.6608 19.7243 37.961 19.22 36.9149 18.23C35.8876 17.24 35.3646 15.783 35.3646 13.8964V6.83566C35.3646 4.94905 35.8876 3.49207 36.9149 2.50207C37.9423 1.51207 39.6608 1.00773 42.0331 1.00773H48.2906V3.95905H42.0331C41.0431 3.95905 40.3146 4.18321 39.8476 4.65019C39.3806 5.11717 39.1378 5.84566 39.1378 6.85434V8.90905H47.1138V11.8604H39.1378V13.9151C39.1378 14.9051 39.3806 15.6336 39.8476 16.1005C40.3146 16.5675 41.0431 16.8104 42.0331 16.8104H48.3466V19.7617H42.0331V19.7243ZM25.6514 9.18925C26.4733 9.18925 27.1457 8.96508 27.6687 8.53546C28.1917 8.10584 28.4533 7.45207 28.4533 6.57415C28.4533 5.69623 28.1917 5.04245 27.6687 4.61282C27.1457 4.1832 26.4733 3.95905 25.6514 3.95905H21.7474V9.20792H25.6514V9.18925ZM31.9089 15.6149L33.1417 19.743H29.1631L27.9302 15.5962C27.6874 14.737 27.4259 14.0832 27.1831 13.5975C26.9402 13.1306 26.604 12.7756 26.1744 12.5141C25.7448 12.2713 25.1844 12.1406 24.4746 12.1406H21.7474V19.743H17.9742V1.00773H25.5393C27.8182 1.00773 29.518 1.45603 30.6014 2.35264C31.6848 3.24924 32.2265 4.66887 32.2265 6.57415C32.2265 7.80698 31.9089 8.79697 31.2551 9.54414C30.6014 10.2913 29.7048 10.777 28.5653 10.9825C29.4806 11.2813 30.1531 11.823 30.62 12.5515C31.087 13.2987 31.5166 14.326 31.9089 15.6149ZM4.67457 9.99245H8.57853C9.40042 9.99245 10.0729 9.74962 10.5959 9.24528C11.1189 8.74094 11.3804 7.99377 11.3804 6.96641C11.3804 5.95773 11.1189 5.19188 10.5959 4.68754C10.0729 4.1832 9.40042 3.94037 8.57853 3.94037H4.67457V9.99245ZM0.901367 19.7243V1.00773H8.46646C10.7453 1.00773 12.4265 1.49339 13.5285 2.46471C14.6119 3.43603 15.1536 4.94905 15.1536 6.96641C15.1536 9.00245 14.6119 10.4968 13.5285 11.4681C12.4451 12.4394 10.764 12.9251 8.46646 12.9251H4.67457V19.7243H0.901367Z" fill="#034542"/>
</svg>
