<svg width="25" height="25" viewBox="0 0 25 25" fill="none" xmlns="http://www.w3.org/2000/svg">
<g clip-path="url(#clip0_263_1791)">
<path d="M21.9867 11.291H18.8107L14.7207 8.33302C14.4954 8.16941 14.2483 8.03814 13.9867 7.94302V7.14502C14.7085 6.92882 15.3414 6.48584 15.7917 5.88172C16.242 5.2776 16.4857 4.54449 16.4867 3.79102C16.4867 1.86102 14.9167 0.291016 12.9867 0.291016C11.0567 0.291016 9.48667 1.86102 9.48667 3.79102C9.48765 4.54449 9.73134 5.2776 10.1816 5.88172C10.6319 6.48584 11.2649 6.92882 11.9867 7.14502V7.92602C11.7026 8.02397 11.4349 8.16421 11.1927 8.34202L7.16067 11.291H3.98767C2.33367 11.291 0.987665 12.637 0.987665 14.291V15.291C0.987665 15.5562 1.09302 15.8106 1.28056 15.9981C1.4681 16.1857 1.72245 16.291 1.98767 16.291C2.25288 16.291 2.50724 16.1857 2.69477 15.9981C2.88231 15.8106 2.98767 15.5562 2.98767 15.291V14.291C2.98767 13.739 3.43667 13.291 3.98767 13.291H7.16067L11.1937 16.24C11.7053 16.6147 12.3226 16.8174 12.9567 16.819C13.5908 16.8206 14.2091 16.6211 14.7227 16.249L18.8127 13.291H21.9887C22.5397 13.291 22.9887 13.739 22.9887 14.291V15.291C22.9887 15.5562 23.094 15.8106 23.2816 15.9981C23.4691 16.1857 23.7235 16.291 23.9887 16.291C24.2539 16.291 24.5082 16.1857 24.6958 15.9981C24.8833 15.8106 24.9887 15.5562 24.9887 15.291V14.291C24.9887 12.637 23.6427 11.291 21.9887 11.291H21.9867ZM11.4867 3.79102C11.4867 2.96402 12.1597 2.29102 12.9867 2.29102C13.8137 2.29102 14.4867 2.96402 14.4867 3.79102C14.4867 4.61802 13.8137 5.29102 12.9867 5.29102C12.1597 5.29102 11.4867 4.61802 11.4867 3.79102ZM13.5487 14.628C13.3775 14.7523 13.1712 14.819 12.9597 14.8185C12.7481 14.818 12.5422 14.7502 12.3717 14.625L9.17967 12.291L12.3707 9.95702C12.5412 9.83183 12.7471 9.76408 12.9587 9.76354C13.1702 9.763 13.3765 9.8297 13.5477 9.95402L16.7787 12.291L13.5477 14.628H13.5487ZM24.6937 18.998L22.9007 20.791L24.6937 22.584C24.8812 22.7715 24.9865 23.0258 24.9865 23.291C24.9865 23.5562 24.8812 23.8105 24.6937 23.998C24.5062 24.1855 24.2518 24.2909 23.9867 24.2909C23.7215 24.2909 23.4672 24.1855 23.2797 23.998L21.4867 22.205L19.6937 23.998C19.601 24.0912 19.4909 24.1652 19.3695 24.2156C19.2482 24.2661 19.1181 24.2921 18.9867 24.2921C18.8553 24.2921 18.7251 24.2661 18.6038 24.2156C18.4825 24.1652 18.3723 24.0912 18.2797 23.998C18.1867 23.9052 18.113 23.795 18.0627 23.6737C18.0124 23.5524 17.9865 23.4223 17.9865 23.291C17.9865 23.1597 18.0124 23.0296 18.0627 22.9083C18.113 22.787 18.1867 22.6768 18.2797 22.584L20.0727 20.791L18.2797 18.998C18.1868 18.9052 18.1132 18.7949 18.0629 18.6736C18.0127 18.5523 17.9868 18.4223 17.9868 18.291C17.9868 18.1597 18.0127 18.0297 18.0629 17.9084C18.1132 17.7871 18.1868 17.6769 18.2797 17.584C18.3725 17.4912 18.4827 17.4175 18.604 17.3673C18.7253 17.317 18.8554 17.2912 18.9867 17.2912C19.118 17.2912 19.248 17.317 19.3693 17.3673C19.4906 17.4175 19.6008 17.4912 19.6937 17.584L21.4867 19.377L23.2797 17.584C23.4672 17.3965 23.7215 17.2912 23.9867 17.2912C24.2518 17.2912 24.5062 17.3965 24.6937 17.584C24.8812 17.7715 24.9865 18.0258 24.9865 18.291C24.9865 18.5562 24.8812 18.8105 24.6937 18.998ZM9.18967 18.079C9.37834 18.2653 9.48527 18.519 9.48696 18.7842C9.48865 19.0493 9.38495 19.3043 9.19867 19.493L6.17767 22.554C5.70067 23.032 5.07267 23.291 4.40567 23.291C3.73867 23.291 3.10967 23.031 2.63767 22.559L1.27967 21.201C1.09216 21.0135 0.986816 20.7592 0.986816 20.494C0.986816 20.2288 1.09216 19.9745 1.27967 19.787C1.46717 19.5995 1.72149 19.4942 1.98667 19.4942C2.25184 19.4942 2.50616 19.5995 2.69367 19.787L4.05167 21.145C4.1456 21.2388 4.27292 21.2915 4.40567 21.2915C4.53841 21.2915 4.66573 21.2388 4.75967 21.145L7.77567 18.089C7.96204 17.9002 8.21577 17.793 8.4811 17.7911C8.74643 17.7893 9.00165 17.8928 9.19067 18.079H9.18967Z" fill="#034542"/>
</g>
<defs>
<clipPath id="clip0_263_1791">
<rect width="24" height="24" fill="white" transform="translate(0.987793 0.291016)"/>
</clipPath>
</defs>
</svg>
